HIERARCHY
ROOT Hips
{
  OFFSET 0 0 0
  CHANNELS 6 Xposition Yposition Zposition Zrotation Yrotation Xrotation
  JOINT LeftThigh
  {
    OFFSET 8.409438 0 -5.917753
    CHANNELS 3 Zrotation Yrotation Xrotation
    JOINT LeftLeg
    {
      OFFSET 0 0 -42.358652
      CHANNELS 3 Zrotation Yrotation Xrotation
      JOINT LeftFoot
      {
        OFFSET 0 0 -39.357303
        CHANNELS 3 Zrotation Yrotation Xrotation
      }
    }
  }
  JOINT RightThigh
  {
    OFFSET -8.409438 0 -5.917753
    CHANNELS 3 Zrotation Yrotation Xrotation
    JOINT RightLeg
    {
      OFFSET 0 0 -42.358652
      CHANNELS 3 Zrotation Yrotation Xrotation
      JOINT RightFoot
      {
        OFFSET 0 0 -39.357303
        CHANNELS 3 Zrotation Yrotation Xrotation
      }
    }
  }
  JOINT SpineLow
  {
    OFFSET 0 0 4.719101
    CHANNELS 3 Zrotation Yrotation Xrotation
    JOINT SpineMid
    {
      OFFSET 0 0 12.899191
      CHANNELS 3 Zrotation Yrotation Xrotation
      JOINT Chest
      {
        OFFSET 0 0 12.899191
        CHANNELS 3 Zrotation Yrotation Xrotation
        JOINT LeftShoulder
        {
          OFFSET 7.550562 1.41573 9.438202
          CHANNELS 3 Zrotation Yrotation Xrotation
          JOINT LeftArm
          {
            OFFSET 9.155056 0 4.247191
            CHANNELS 3 Zrotation Yrotation Xrotation
            JOINT LeftForearm
            {
              OFFSET 0 0 25.771955
              CHANNELS 3 Zrotation Yrotation Xrotation
              JOINT LeftHand
              {
                OFFSET 0 0 25.197169
                CHANNELS 3 Zrotation Yrotation Xrotation
              }
            }
          }
        }
        JOINT RightShoulder
        {
          OFFSET -7.550562 1.41573 9.438202
          CHANNELS 3 Zrotation Yrotation Xrotation
          JOINT RightArm
          {
            OFFSET -9.155056 0 4.247191
            CHANNELS 3 Zrotation Yrotation Xrotation
            JOINT RightForearm
            {
              OFFSET 0 0 -25.771955
              CHANNELS 3 Zrotation Yrotation Xrotation
              JOINT RightHand
              {
                OFFSET 0 0 -25.197169
                CHANNELS 3 Zrotation Yrotation Xrotation
              }
            }
          }
        }
        JOINT Neck
        {
          OFFSET 0 0 15.101124
          CHANNELS 3 Zrotation Yrotation Xrotation
          JOINT Head
          {
            OFFSET 0 0 11.325843
            CHANNELS 3 Zrotation Yrotation Xrotation
            End Site
            {
              OFFSET 0 0 14.157303
            }
          }
        }
      }
    }
  }
}
MOTION
Frames: 8
Frame Time: 0.0
0.0  93.25843  0.0  -120.234132  33.939627  155.51489  37.702224  -43.28968  -55.783333  -22.093568  18.214318  14.330831  1.756801  -2.554701  0.764217  13.14531  34.639239  -9.026415  -21.277101  2.286346  19.517973  -4.702139  1.486453  6.564114  -1.391384  -3.702128  1.711764  -4.093712  -10.010265  4.926435  -4.093712  -10.010266  4.926435  -23.641241  22.176393  2.080166  128.611121  46.163701  -149.355444  -21.227657  5.256913  77.687853  41.596351  1.513798  6.574783  0.665123  -13.63387  19.874488  46.002743  59.634048  9.017321  -26.125132  -26.183479  -104.320519  62.816846  14.564484  26.580943  -17.837523  -6.38178  11.182019  -13.252508  -5.119563  8.199186  
0.0  93.25843  0.0  -120.888435  33.598685  155.092901  39.297118  -43.339934  -57.473139  -21.219724  19.048834  14.931607  0.673263  -2.555892  0.454169  13.872175  34.006459  -8.956784  -20.322205  2.263351  21.6659  -6.48919  1.614649  6.58138  -1.415442  -3.661206  1.679331  -4.151383  -9.89882  4.837625  -4.151383  -9.89882  4.837625  -23.900153  22.39062  2.174051  129.707834  46.577852  -148.852427  -20.520812  5.675582  78.014673  41.536097  1.384703  6.460512  0.573166  -13.575506  20.039736  44.171588  59.357096  6.913351  -25.823786  -26.33963  -104.955365  63.277326  14.776266  26.773351  -17.876897  -6.309587  10.995055  -13.28543  -5.060559  8.060915  
0.0  93.25843  0.0  -121.38017  33.487297  154.790809  39.828046  -43.428703  -58.130948  -20.180144  19.295203  15.395687  0.389079  -2.545267  0.348112  11.727589  33.279774  -10.362537  -19.237565  3.169558  23.392089  -7.126139  1.741123  6.593291  -1.475137  -3.614523  1.663416  -4.309117  -9.767933  4.799026  -4.309117  -9.767934  4.799026  -23.914344  22.731114  2.156771  129.892598  46.752606  -148.794091  -20.363719  5.540227  78.182088  41.501411  1.321585  6.297078  0.981998  -13.515642  19.989032  43.126959  59.076561  5.548807  -25.592389  -26.649663  -105.50126  63.724523  15.094605  27.007065  -17.732792  -6.127528  10.896884  -13.18239  -4.918294  7.994466  
0.0  93.25843  0.0  -121.741361  33.483601  154.63067  39.588363  -43.272112  -58.123424  -19.708924  19.307647  15.127781  0.429209  -2.689623  0.801288  7.702371  32.410659  -12.945  -18.571682  5.096554  24.977444  -6.570486  1.924063  6.593691  -1.562381  -3.560178  1.641536  -4.541087  -9.614569  4.747194  -4.541087  -9.614568  4.747194  -23.649595  23.081045  2.109554  129.098448  46.76978  -149.247471  -20.736607  4.994659  78.166528  41.502803  1.325324  6.146497  1.624482  -13.498325  19.92491  42.658343  58.924173  4.857077  -25.515319  -26.960461  -105.992029  64.026919  15.334667  27.210149  -17.443518  -5.924475  10.924151  -12.969785  -4.761296  8.023944  
0.0  93.25843  0.0  -121.960035  33.56974  154.533721  39.111193  -42.761632  -57.733345  -20.116406  18.946147  14.945925  0.69626  -2.724505  0.841302  3.131756  31.365535  -15.983832  -18.397565  7.723785  26.49227  -5.379329  2.22335  6.616919  -1.631198  -3.484296  1.644163  -4.724065  -9.402096  4.757857  -4.724064  -9.402095  4.757857  -23.319152  23.179613  1.990053  127.848905  46.74013  -149.821816  -21.298158  4.293206  77.974681  41.555676  1.389708  6.050109  2.294844  -13.585721  19.743526  42.44521  58.913112  4.48352  -25.621627  -27.184923  -106.418281  64.238791  15.367002  27.394509  -17.12304  -5.867019  10.968978  -12.73041  -4.713524  8.062175  
0.0  93.25843  0.0  -122.613799  33.602935  153.765017  38.124073  -42.361417  -56.966377  -20.924421  18.846017  14.643166  1.28006  -2.899585  0.851179  -1.403422  30.256091  -18.390025  -18.379904  10.526996  27.792298  -4.18489  2.58426  6.647364  -1.744289  -3.390174  1.69338  -5.033447  -9.13284  4.900593  -5.033446  -9.13284  4.900592  -23.162551  23.154118  1.798769  126.652975  46.693613  -150.33244  -21.733965  3.635408  77.70422  41.521492  1.513162  5.967854  2.702454  -13.656032  19.652954  42.101112  58.90471  4.022744  -25.699323  -27.212603  -106.885719  64.438569  15.28125  27.609071  -16.918039  -5.892961  11.031064  -12.575616  -4.730953  8.109749  
0.0  93.25843  0.0  -122.466313  33.858708  153.822819  38.02172  -42.021661  -56.686541  -21.414266  18.864925  14.584988  1.655099  -3.01113  0.846842  -4.917264  28.984679  -20.737861  -18.395179  13.216391  28.955778  -3.171905  2.888737  6.635345  -1.716377  -3.305856  1.673933  -4.946641  -8.906332  4.835762  -4.946641  -8.906332  4.835761  -23.221675  23.119949  1.819058  125.794057  46.780136  -150.682495  -22.004383  3.143711  77.425429  41.390444  1.632405  5.946415  2.738849  -13.715582  19.767033  41.653774  58.779389  3.367952  -25.625775  -27.039236  -107.43257  64.678008  15.125463  27.88931  -16.850433  -5.958593  11.143992  -12.522486  -4.782129  8.193051  
0.0  93.25843  0.0  -122.768553  34.01987  153.251422  37.339749  -42.015791  -56.10733  -21.337291  18.957227  14.77729  1.709921  -3.03211  0.794894  -8.017313  27.620914  -22.174797  -18.148987  15.84831  30.021568  -2.324051  3.085728  6.641965  -1.763402  -3.207698  1.711872  -5.072113  -8.631831  4.937328  -5.072113  -8.631831  4.937328  -23.403408  22.959962  1.702697  125.501354  47.002786  -150.823341  -22.077228  3.215647  77.124309  41.315274  1.684987  6.002316  2.646552  -13.805914  19.872527  41.340999  58.592282  2.761236  -25.389037  -26.782917  -108.116192  64.880773  14.981612  28.200636  -16.804023  -6.088611  11.182214  -12.484449  -4.879942  8.218184  
